<?xml version="1.0" standalone="no"?><!-- Generator: Gravit.io --><svg xmlns="http://www.w3.org/2000/svg" xmlns:xlink="http://www.w3.org/1999/xlink" style="isolation:isolate" viewBox="0 0 215 150.5" width="215" height="150.5"><defs><clipPath id="_clipPath_7FkjfyUhrATltdBROfSoYTwXANw4rbtW"><rect width="215" height="150.5"/></clipPath></defs><g clip-path="url(#_clipPath_7FkjfyUhrATltdBROfSoYTwXANw4rbtW)"><rect width="215" height="150.5" style="fill:rgb(0,0,0)" fill-opacity="0"/><g><path d=" M 43 0 L 43 150.5 L 75.25 150.5 L 75.25 96.75 L 139.75 96.75 L 139.75 150.5 L 172 150.5 L 172 0 L 139.75 0 L 139.75 53.75 L 75.25 53.75 L 75.25 0 L 43 0 Z  M 10.75 10.75 L 10.75 53.75 L 0 53.75 L 0 96.75 L 10.75 96.75 L 10.75 139.75 L 32.25 139.75 L 32.25 10.75 L 10.75 10.75 Z  M 182.75 10.75 L 182.75 139.75 L 204.25 139.75 L 204.25 96.75 L 215 96.75 L 215 53.75 L 204.25 53.75 L 204.25 10.75 L 182.75 10.75 Z " fill="rgb(255,255,255)"/></g></g></svg>